<?xml version="1.0" standalone="no"?><svg xmlns="http://www.w3.org/2000/svg" viewBox="0 0 1440 320"><path fill="#a2d9ff" fill-opacity="1" d="M0,224L18.5,208C36.9,192,74,160,111,144C147.7,128,185,128,222,133.3C258.5,139,295,149,332,160C369.2,171,406,181,443,202.7C480,224,517,256,554,256C590.8,256,628,224,665,229.3C701.5,235,738,277,775,277.3C812.3,277,849,235,886,213.3C923.1,192,960,192,997,202.7C1033.8,213,1071,235,1108,224C1144.6,213,1182,171,1218,181.3C1255.4,192,1292,256,1329,240C1366.2,224,1403,128,1422,80L1440,32L1440,320L1421.5,320C1403.1,320,1366,320,1329,320C1292.3,320,1255,320,1218,320C1181.5,320,1145,320,1108,320C1070.8,320,1034,320,997,320C960,320,923,320,886,320C849.2,320,812,320,775,320C738.5,320,702,320,665,320C627.7,320,591,320,554,320C516.9,320,480,320,443,320C406.2,320,369,320,332,320C295.4,320,258,320,222,320C184.6,320,148,320,111,320C73.8,320,37,320,18,320L0,320Z"></path></svg>